# xmcd CD database file
#
# Track frame offsets:
#	150
#	16758
#	21487
#	49041
#	55491
#	83986
#	88851
#	109578
#	120097
#	128931
#	141430
#	176430
#
# Disc length: 2542 seconds
#
# Revision: 0
# Processed by: cddbd v1.5.1PL0 Copyright (c) Steve Scherf et al.
# Submitted via: CDex 1.51
#
DISCID=9c09ec0c
DTITLE=5 Minute Heroes - Berlin. Die Sinfonie der Grosstadt
DYEAR=2005
DGENRE=Jazz
TTITLE0=Der Marsch der Lemminge
TTITLE1=Erstes Erwachen
TTITLE2=Guten Morgen
TTITLE3=Maschine
TTITLE4=Straﬂen
TTITLE5=Wirtshaus
TTITLE6=Mittag
TTITLE7=Panik
TTITLE8=Sturm
TTITLE9=Feierabend
TTITLE10=Nachtleben
TTITLE11=Russisch' Roulette
EXTD=YEAR: 2005
EXTT0=
EXTT1=
EXTT2=
EXTT3=
EXTT4=
EXTT5=
EXTT6=
EXTT7=
EXTT8=
EXTT9=
EXTT10=
EXTT11=
PLAYORDER=
